<mxfile host="app.diagrams.net" agent="Mozilla/5.0 (Windows NT 10.0; Win64; x64) AppleWebKit/537.36 (KHTML, like Gecko) Chrome/128.0.0.0 Safari/537.36" version="24.7.7">
  <diagram name="第 1 页" id="b0ph13xuNjwJF4Gtcn9R">
    <mxGraphModel dx="1362" dy="833" grid="1" gridSize="10" guides="1" tooltips="1" connect="1" arrows="1" fold="1" page="1" pageScale="1" pageWidth="827" pageHeight="1169" math="0" shadow="0">
      <root>
        <mxCell id="0" />
        <mxCell id="1" parent="0" />
        <mxCell id="cLuOupA7dk0HDs1lH8jl-59" value="" style="rounded=0;whiteSpace=wrap;html=1;" vertex="1" parent="1">
          <mxGeometry x="40" y="10" width="1210" height="950" as="geometry" />
        </mxCell>
        <mxCell id="cLuOupA7dk0HDs1lH8jl-1" value="&lt;span style=&quot;color: rgb(50, 50, 50); font-family: &amp;quot;Microsoft YaHei&amp;quot;, 微软雅黑, Arial; font-size: 19px; background-color: rgba(255, 255, 255, 0.01);&quot;&gt;文本&lt;/span&gt;" style="rounded=0;whiteSpace=wrap;html=1;fillColor=#b0e3e6;strokeColor=#0e8088;" vertex="1" parent="1">
          <mxGeometry x="100" y="160" width="120" height="60" as="geometry" />
        </mxCell>
        <mxCell id="cLuOupA7dk0HDs1lH8jl-3" value="&lt;span style=&quot;color: rgb(50, 50, 50); font-family: &amp;quot;Microsoft YaHei&amp;quot;, 微软雅黑, Arial; font-size: 19px; background-color: rgba(255, 255, 255, 0.01);&quot;&gt;商品描述&lt;/span&gt;&lt;div&gt;&lt;span style=&quot;color: rgb(50, 50, 50); font-family: &amp;quot;Microsoft YaHei&amp;quot;, 微软雅黑, Arial; font-size: 19px; background-color: rgba(255, 255, 255, 0.01);&quot;&gt;英译汉&lt;/span&gt;&lt;/div&gt;" style="rounded=0;whiteSpace=wrap;html=1;fillColor=#fad9d5;strokeColor=#ae4132;" vertex="1" parent="1">
          <mxGeometry x="430" y="240" width="120" height="60" as="geometry" />
        </mxCell>
        <mxCell id="cLuOupA7dk0HDs1lH8jl-4" value="&lt;span style=&quot;color: rgb(50, 50, 50); font-family: &amp;quot;Microsoft YaHei&amp;quot;, 微软雅黑, Arial; font-size: 19px; background-color: rgba(255, 255, 255, 0.01);&quot;&gt;RAG&lt;/span&gt;&lt;div data-processon-v=&quot;{&amp;quot;list&amp;quot;:[{&amp;quot;parent&amp;quot;:&amp;quot;&amp;quot;,&amp;quot;link&amp;quot;:&amp;quot;&amp;quot;,&amp;quot;shapeStyle&amp;quot;:{&amp;quot;alpha&amp;quot;:1},&amp;quot;textBlock&amp;quot;:[{&amp;quot;position&amp;quot;:{&amp;quot;w&amp;quot;:&amp;quot;w-20&amp;quot;,&amp;quot;x&amp;quot;:10,&amp;quot;h&amp;quot;:&amp;quot;h&amp;quot;,&amp;quot;y&amp;quot;:0},&amp;quot;text&amp;quot;:&amp;quot;文生图/图生图&amp;quot;}],&amp;quot;anchors&amp;quot;:[{&amp;quot;x&amp;quot;:&amp;quot;w/2&amp;quot;,&amp;quot;y&amp;quot;:&amp;quot;0&amp;quot;},{&amp;quot;x&amp;quot;:&amp;quot;w/2&amp;quot;,&amp;quot;y&amp;quot;:&amp;quot;h&amp;quot;},{&amp;quot;x&amp;quot;:&amp;quot;0&amp;quot;,&amp;quot;y&amp;quot;:&amp;quot;h/2&amp;quot;},{&amp;quot;x&amp;quot;:&amp;quot;w&amp;quot;,&amp;quot;y&amp;quot;:&amp;quot;h/2&amp;quot;}],&amp;quot;title&amp;quot;:&amp;quot;矩形&amp;quot;,&amp;quot;fontStyle&amp;quot;:{&amp;quot;size&amp;quot;:19},&amp;quot;dataAttributes&amp;quot;:[{&amp;quot;name&amp;quot;:&amp;quot;序号&amp;quot;,&amp;quot;id&amp;quot;:&amp;quot;IxBlqMSOtN511808&amp;quot;,&amp;quot;type&amp;quot;:&amp;quot;number&amp;quot;,&amp;quot;category&amp;quot;:&amp;quot;default&amp;quot;,&amp;quot;value&amp;quot;:&amp;quot;&amp;quot;},{&amp;quot;name&amp;quot;:&amp;quot;名称&amp;quot;,&amp;quot;id&amp;quot;:&amp;quot;UZWZYlgJSw993205&amp;quot;,&amp;quot;type&amp;quot;:&amp;quot;string&amp;quot;,&amp;quot;category&amp;quot;:&amp;quot;default&amp;quot;,&amp;quot;value&amp;quot;:&amp;quot;&amp;quot;},{&amp;quot;name&amp;quot;:&amp;quot;所有者&amp;quot;,&amp;quot;id&amp;quot;:&amp;quot;uDqHFwwend459883&amp;quot;,&amp;quot;type&amp;quot;:&amp;quot;string&amp;quot;,&amp;quot;category&amp;quot;:&amp;quot;default&amp;quot;,&amp;quot;value&amp;quot;:&amp;quot;&amp;quot;},{&amp;quot;name&amp;quot;:&amp;quot;连接&amp;quot;,&amp;quot;id&amp;quot;:&amp;quot;zQOMZqkfMa000009&amp;quot;,&amp;quot;type&amp;quot;:&amp;quot;link&amp;quot;,&amp;quot;category&amp;quot;:&amp;quot;default&amp;quot;,&amp;quot;value&amp;quot;:&amp;quot;&amp;quot;},{&amp;quot;name&amp;quot;:&amp;quot;便笺&amp;quot;,&amp;quot;id&amp;quot;:&amp;quot;hWhPzeKgeI841041&amp;quot;,&amp;quot;type&amp;quot;:&amp;quot;string&amp;quot;,&amp;quot;category&amp;quot;:&amp;quot;default&amp;quot;,&amp;quot;value&amp;quot;:&amp;quot;&amp;quot;}],&amp;quot;props&amp;quot;:{&amp;quot;zindex&amp;quot;:23,&amp;quot;w&amp;quot;:117.60417175292969,&amp;quot;x&amp;quot;:466.9583282470703,&amp;quot;h&amp;quot;:73.88890075683594,&amp;quot;y&amp;quot;:862,&amp;quot;angle&amp;quot;:0},&amp;quot;path&amp;quot;:[{&amp;quot;actions&amp;quot;:[{&amp;quot;x&amp;quot;:&amp;quot;0&amp;quot;,&amp;quot;action&amp;quot;:&amp;quot;move&amp;quot;,&amp;quot;y&amp;quot;:&amp;quot;0&amp;quot;},{&amp;quot;x&amp;quot;:&amp;quot;w&amp;quot;,&amp;quot;action&amp;quot;:&amp;quot;line&amp;quot;,&amp;quot;y&amp;quot;:&amp;quot;0&amp;quot;},{&amp;quot;x&amp;quot;:&amp;quot;w&amp;quot;,&amp;quot;action&amp;quot;:&amp;quot;line&amp;quot;,&amp;quot;y&amp;quot;:&amp;quot;h&amp;quot;},{&amp;quot;x&amp;quot;:&amp;quot;0&amp;quot;,&amp;quot;action&amp;quot;:&amp;quot;line&amp;quot;,&amp;quot;y&amp;quot;:&amp;quot;h&amp;quot;},{&amp;quot;action&amp;quot;:&amp;quot;close&amp;quot;}]}],&amp;quot;lineStyle&amp;quot;:{&amp;quot;lineWidth&amp;quot;:1.5},&amp;quot;children&amp;quot;:[],&amp;quot;resizeDir&amp;quot;:[&amp;quot;tl&amp;quot;,&amp;quot;tr&amp;quot;,&amp;quot;br&amp;quot;,&amp;quot;bl&amp;quot;,&amp;quot;l&amp;quot;,&amp;quot;t&amp;quot;,&amp;quot;r&amp;quot;,&amp;quot;b&amp;quot;],&amp;quot;name&amp;quot;:&amp;quot;rectangle&amp;quot;,&amp;quot;fillStyle&amp;quot;:{&amp;quot;color&amp;quot;:&amp;quot;210,214,249&amp;quot;,&amp;quot;type&amp;quot;:&amp;quot;solid&amp;quot;},&amp;quot;theme&amp;quot;:{},&amp;quot;id&amp;quot;:&amp;quot;ieYTUFMqIj524109&amp;quot;,&amp;quot;attribute&amp;quot;:{&amp;quot;container&amp;quot;:false,&amp;quot;rotatable&amp;quot;:true,&amp;quot;visible&amp;quot;:true,&amp;quot;fixedLink&amp;quot;:false,&amp;quot;collapsable&amp;quot;:false,&amp;quot;collapsed&amp;quot;:false,&amp;quot;linkable&amp;quot;:true,&amp;quot;markerOffset&amp;quot;:5},&amp;quot;category&amp;quot;:&amp;quot;basic&amp;quot;,&amp;quot;locked&amp;quot;:false,&amp;quot;group&amp;quot;:&amp;quot;&amp;quot;}]}&quot; data-t=&quot;flow&quot;&gt;&lt;/div&gt;" style="rounded=0;whiteSpace=wrap;html=1;fillColor=#b0e3e6;strokeColor=#0e8088;" vertex="1" parent="1">
          <mxGeometry x="100" y="630" width="120" height="60" as="geometry" />
        </mxCell>
        <mxCell id="cLuOupA7dk0HDs1lH8jl-5" value="&lt;span style=&quot;color: rgb(50, 50, 50); font-family: &amp;quot;Microsoft YaHei&amp;quot;, 微软雅黑, Arial; font-size: 19px; background-color: rgba(255, 255, 255, 0.01);&quot;&gt;微调&lt;/span&gt;" style="rounded=0;whiteSpace=wrap;html=1;fillColor=#b0e3e6;strokeColor=#0e8088;" vertex="1" parent="1">
          <mxGeometry x="100" y="810" width="120" height="60" as="geometry" />
        </mxCell>
        <mxCell id="cLuOupA7dk0HDs1lH8jl-9" value="&lt;span style=&quot;color: rgb(50, 50, 50); font-family: &amp;quot;Microsoft YaHei&amp;quot;, 微软雅黑, Arial; font-size: 19px; background-color: rgba(255, 255, 255, 0.01);&quot;&gt;文本识别&lt;/span&gt;" style="rounded=0;whiteSpace=wrap;html=1;fillColor=#b1ddf0;strokeColor=#10739e;" vertex="1" parent="1">
          <mxGeometry x="250" y="80" width="120" height="60" as="geometry" />
        </mxCell>
        <mxCell id="cLuOupA7dk0HDs1lH8jl-10" value="&lt;span style=&quot;color: rgb(50, 50, 50); font-family: &amp;quot;Microsoft YaHei&amp;quot;, 微软雅黑, Arial; font-size: 19px; background-color: rgba(255, 255, 255, 0.01);&quot;&gt;文本生成&lt;/span&gt;" style="rounded=0;whiteSpace=wrap;html=1;fillColor=#b1ddf0;strokeColor=#10739e;" vertex="1" parent="1">
          <mxGeometry x="250" y="160" width="120" height="60" as="geometry" />
        </mxCell>
        <mxCell id="cLuOupA7dk0HDs1lH8jl-11" value="&lt;font face=&quot;Microsoft YaHei, 微软雅黑, Arial&quot; color=&quot;#323232&quot;&gt;&lt;span style=&quot;font-size: 19px; background-color: rgba(255, 255, 255, 0.01);&quot;&gt;文本提取&lt;/span&gt;&lt;/font&gt;" style="rounded=0;whiteSpace=wrap;html=1;fillColor=#b1ddf0;strokeColor=#10739e;" vertex="1" parent="1">
          <mxGeometry x="250" y="350" width="120" height="60" as="geometry" />
        </mxCell>
        <mxCell id="cLuOupA7dk0HDs1lH8jl-12" value="&lt;span style=&quot;color: rgb(50, 50, 50); font-family: &amp;quot;Microsoft YaHei&amp;quot;, 微软雅黑, Arial; font-size: 19px; background-color: rgba(255, 255, 255, 0.01);&quot;&gt;图像&lt;/span&gt;" style="rounded=0;whiteSpace=wrap;html=1;fillColor=#b0e3e6;strokeColor=#0e8088;" vertex="1" parent="1">
          <mxGeometry x="100" y="430" width="120" height="60" as="geometry" />
        </mxCell>
        <mxCell id="cLuOupA7dk0HDs1lH8jl-13" value="&lt;span style=&quot;color: rgb(50, 50, 50); font-family: &amp;quot;Microsoft YaHei&amp;quot;, 微软雅黑, Arial; font-size: 19px; background-color: rgba(255, 255, 255, 0.01);&quot;&gt;URL数据解析&lt;/span&gt;" style="rounded=0;whiteSpace=wrap;html=1;fillColor=#fad9d5;strokeColor=#ae4132;" vertex="1" parent="1">
          <mxGeometry x="430" y="80" width="120" height="60" as="geometry" />
        </mxCell>
        <mxCell id="cLuOupA7dk0HDs1lH8jl-14" value="&lt;span style=&quot;color: rgb(50, 50, 50); font-family: &amp;quot;Microsoft YaHei&amp;quot;, 微软雅黑, Arial; font-size: 19px; background-color: rgba(255, 255, 255, 0.01);&quot;&gt;生成SEO页面&lt;/span&gt;" style="rounded=0;whiteSpace=wrap;html=1;fillColor=#d0cee2;strokeColor=#56517e;" vertex="1" parent="1">
          <mxGeometry x="430" y="160" width="120" height="60" as="geometry" />
        </mxCell>
        <mxCell id="cLuOupA7dk0HDs1lH8jl-15" value="&lt;span style=&quot;color: rgb(50, 50, 50); font-family: &amp;quot;Microsoft YaHei&amp;quot;, 微软雅黑, Arial; font-size: 19px; background-color: rgba(255, 255, 255, 0.01);&quot;&gt;商家入驻&lt;/span&gt;&lt;div&gt;&lt;span style=&quot;color: rgb(50, 50, 50); font-family: &amp;quot;Microsoft YaHei&amp;quot;, 微软雅黑, Arial; font-size: 19px; background-color: rgba(255, 255, 255, 0.01);&quot;&gt;地址校验&lt;/span&gt;&lt;/div&gt;" style="rounded=0;whiteSpace=wrap;html=1;fillColor=#fad9d5;strokeColor=#ae4132;" vertex="1" parent="1">
          <mxGeometry x="570" y="80" width="120" height="60" as="geometry" />
        </mxCell>
        <mxCell id="cLuOupA7dk0HDs1lH8jl-16" value="&lt;span style=&quot;color: rgb(50, 50, 50); font-family: &amp;quot;Microsoft YaHei&amp;quot;, 微软雅黑, Arial; font-size: 19px; background-color: rgba(255, 255, 255, 0.01);&quot;&gt;生成中英文&lt;/span&gt;&lt;div&gt;&lt;span style=&quot;color: rgb(50, 50, 50); font-family: &amp;quot;Microsoft YaHei&amp;quot;, 微软雅黑, Arial; font-size: 19px; background-color: rgba(255, 255, 255, 0.01);&quot;&gt;标题&lt;/span&gt;&lt;/div&gt;" style="rounded=0;whiteSpace=wrap;html=1;fillColor=#fad9d5;strokeColor=#ae4132;" vertex="1" parent="1">
          <mxGeometry x="570" y="160" width="120" height="60" as="geometry" />
        </mxCell>
        <mxCell id="cLuOupA7dk0HDs1lH8jl-17" value="&lt;span style=&quot;color: rgb(50, 50, 50); font-family: &amp;quot;Microsoft YaHei&amp;quot;, 微软雅黑, Arial; font-size: 19px; background-color: rgba(255, 255, 255, 0.01);&quot;&gt;生成商品搜索关键字&lt;/span&gt;" style="rounded=0;whiteSpace=wrap;html=1;fillColor=#fad9d5;strokeColor=#ae4132;" vertex="1" parent="1">
          <mxGeometry x="707" y="160" width="120" height="60" as="geometry" />
        </mxCell>
        <mxCell id="cLuOupA7dk0HDs1lH8jl-18" value="&lt;span style=&quot;color: rgb(50, 50, 50); font-family: &amp;quot;Microsoft YaHei&amp;quot;, 微软雅黑, Arial; font-size: 19px; background-color: rgba(255, 255, 255, 0.01);&quot;&gt;提取商品实体&lt;/span&gt;" style="rounded=0;whiteSpace=wrap;html=1;fillColor=#bac8d3;strokeColor=#23445d;" vertex="1" parent="1">
          <mxGeometry x="840" y="160" width="120" height="60" as="geometry" />
        </mxCell>
        <mxCell id="cLuOupA7dk0HDs1lH8jl-19" value="&lt;span style=&quot;color: rgb(50, 50, 50); font-family: &amp;quot;Microsoft YaHei&amp;quot;, 微软雅黑, Arial; font-size: 19px; background-color: rgba(255, 255, 255, 0.01);&quot;&gt;翻译&lt;/span&gt;" style="rounded=0;whiteSpace=wrap;html=1;fillColor=#b1ddf0;strokeColor=#10739e;" vertex="1" parent="1">
          <mxGeometry x="250" y="240" width="120" height="60" as="geometry" />
        </mxCell>
        <mxCell id="cLuOupA7dk0HDs1lH8jl-20" value="&lt;font face=&quot;Microsoft YaHei, 微软雅黑, Arial&quot; color=&quot;#323232&quot;&gt;&lt;span style=&quot;font-size: 19px; background-color: rgba(255, 255, 255, 0.01);&quot;&gt;多模态&lt;/span&gt;&lt;/font&gt;" style="rounded=0;whiteSpace=wrap;html=1;fillColor=#b1ddf0;strokeColor=#10739e;" vertex="1" parent="1">
          <mxGeometry x="250" y="515" width="120" height="60" as="geometry" />
        </mxCell>
        <mxCell id="cLuOupA7dk0HDs1lH8jl-21" value="&lt;font face=&quot;Microsoft YaHei, 微软雅黑, Arial&quot; color=&quot;#323232&quot;&gt;&lt;span style=&quot;font-size: 19px; background-color: rgba(255, 255, 255, 0.01);&quot;&gt;图像处理&lt;/span&gt;&lt;/font&gt;" style="rounded=0;whiteSpace=wrap;html=1;fillColor=#b1ddf0;strokeColor=#10739e;" vertex="1" parent="1">
          <mxGeometry x="250" y="430" width="120" height="60" as="geometry" />
        </mxCell>
        <mxCell id="cLuOupA7dk0HDs1lH8jl-22" value="&lt;span style=&quot;color: rgb(50, 50, 50); font-family: &amp;quot;Microsoft YaHei&amp;quot;, 微软雅黑, Arial; font-size: 19px; background-color: rgba(255, 255, 255, 0.01);&quot;&gt;rekognition&lt;/span&gt;&lt;font face=&quot;Microsoft YaHei, 微软雅黑, Arial&quot; color=&quot;#323232&quot;&gt;&lt;span style=&quot;font-size: 19px; background-color: rgba(255, 255, 255, 0.01);&quot;&gt;提取图片&lt;/span&gt;&lt;/font&gt;&lt;div&gt;&lt;font face=&quot;Microsoft YaHei, 微软雅黑, Arial&quot; color=&quot;#323232&quot;&gt;&lt;span style=&quot;font-size: 19px; background-color: rgba(255, 255, 255, 0.01);&quot;&gt;文字信息&lt;/span&gt;&lt;/font&gt;&lt;/div&gt;" style="rounded=0;whiteSpace=wrap;html=1;fillColor=#ffe6cc;strokeColor=#d79b00;" vertex="1" parent="1">
          <mxGeometry x="430" y="340" width="130" height="70" as="geometry" />
        </mxCell>
        <mxCell id="cLuOupA7dk0HDs1lH8jl-23" value="&lt;font face=&quot;Microsoft YaHei, 微软雅黑, Arial&quot; color=&quot;#323232&quot;&gt;&lt;span style=&quot;font-size: 19px; background-color: rgba(255, 255, 255, 0.01);&quot;&gt;识别商品图是否可回收&lt;/span&gt;&lt;/font&gt;" style="rounded=0;whiteSpace=wrap;html=1;fillColor=#ffe6cc;strokeColor=#d79b00;" vertex="1" parent="1">
          <mxGeometry x="435" y="515" width="120" height="60" as="geometry" />
        </mxCell>
        <mxCell id="cLuOupA7dk0HDs1lH8jl-24" value="&lt;font face=&quot;Microsoft YaHei, 微软雅黑, Arial&quot; color=&quot;#323232&quot;&gt;&lt;span style=&quot;font-size: 19px; background-color: rgba(255, 255, 255, 0.01);&quot;&gt;pixian自动抠图&lt;/span&gt;&lt;/font&gt;" style="rounded=0;whiteSpace=wrap;html=1;fillColor=#ffe6cc;strokeColor=#d79b00;" vertex="1" parent="1">
          <mxGeometry x="435" y="430" width="120" height="60" as="geometry" />
        </mxCell>
        <mxCell id="cLuOupA7dk0HDs1lH8jl-25" value="&lt;font face=&quot;Microsoft YaHei, 微软雅黑, Arial&quot; color=&quot;#323232&quot;&gt;&lt;span style=&quot;font-size: 19px; background-color: rgba(255, 255, 255, 0.01);&quot;&gt;lama_simple擦除&lt;/span&gt;&lt;/font&gt;&lt;div&gt;&lt;font face=&quot;Microsoft YaHei, 微软雅黑, Arial&quot; color=&quot;#323232&quot;&gt;&lt;span style=&quot;font-size: 19px; background-color: rgba(255, 255, 255, 0.01);&quot;&gt;生产日期&lt;/span&gt;&lt;/font&gt;&lt;/div&gt;" style="rounded=0;whiteSpace=wrap;html=1;fillColor=#ffe6cc;strokeColor=#d79b00;" vertex="1" parent="1">
          <mxGeometry x="590" y="427.5" width="123" height="65" as="geometry" />
        </mxCell>
        <mxCell id="cLuOupA7dk0HDs1lH8jl-26" value="&lt;font face=&quot;Microsoft YaHei, 微软雅黑, Arial&quot; color=&quot;#323232&quot;&gt;&lt;span style=&quot;font-size: 19px; background-color: rgba(255, 255, 255, 0.01);&quot;&gt;商品图营养成分提取&lt;/span&gt;&lt;/font&gt;" style="rounded=0;whiteSpace=wrap;html=1;fillColor=#ffe6cc;strokeColor=#d79b00;" vertex="1" parent="1">
          <mxGeometry x="590" y="515" width="120" height="60" as="geometry" />
        </mxCell>
        <mxCell id="cLuOupA7dk0HDs1lH8jl-27" value="&lt;font face=&quot;Microsoft YaHei, 微软雅黑, Arial&quot; color=&quot;#323232&quot;&gt;&lt;span style=&quot;font-size: 19px; background-color: rgba(255, 255, 255, 0.01);&quot;&gt;发票识别&lt;/span&gt;&lt;/font&gt;" style="rounded=0;whiteSpace=wrap;html=1;fillColor=#fad9d5;strokeColor=#ae4132;" vertex="1" parent="1">
          <mxGeometry x="740" y="515" width="120" height="60" as="geometry" />
        </mxCell>
        <mxCell id="cLuOupA7dk0HDs1lH8jl-28" value="&lt;font face=&quot;Microsoft YaHei, 微软雅黑, Arial&quot; color=&quot;#323232&quot;&gt;&lt;span style=&quot;font-size: 19px; background-color: rgba(255, 255, 255, 0.01);&quot;&gt;相同商品&lt;/span&gt;&lt;/font&gt;&lt;div&gt;&lt;font face=&quot;Microsoft YaHei, 微软雅黑, Arial&quot; color=&quot;#323232&quot;&gt;&lt;span style=&quot;font-size: 19px; background-color: rgba(255, 255, 255, 0.01);&quot;&gt;识别&lt;/span&gt;&lt;/font&gt;&lt;/div&gt;" style="rounded=0;whiteSpace=wrap;html=1;fillColor=#bac8d3;strokeColor=#23445d;" vertex="1" parent="1">
          <mxGeometry x="890" y="515" width="120" height="60" as="geometry" />
        </mxCell>
        <mxCell id="cLuOupA7dk0HDs1lH8jl-29" value="&lt;font face=&quot;Microsoft YaHei, 微软雅黑, Arial&quot; color=&quot;#323232&quot;&gt;&lt;span style=&quot;font-size: 19px; background-color: rgba(255, 255, 255, 0.01);&quot;&gt;AI智能客服&lt;/span&gt;&lt;/font&gt;&lt;div&gt;&lt;font face=&quot;Microsoft YaHei, 微软雅黑, Arial&quot; color=&quot;#323232&quot;&gt;&lt;span style=&quot;font-size: 19px; background-color: rgba(255, 255, 255, 0.01);&quot;&gt;语料库&lt;/span&gt;&lt;/font&gt;&lt;div data-processon-v=&quot;{&amp;quot;list&amp;quot;:[{&amp;quot;parent&amp;quot;:&amp;quot;&amp;quot;,&amp;quot;link&amp;quot;:&amp;quot;&amp;quot;,&amp;quot;shapeStyle&amp;quot;:{&amp;quot;alpha&amp;quot;:1},&amp;quot;textBlock&amp;quot;:[{&amp;quot;position&amp;quot;:{&amp;quot;w&amp;quot;:&amp;quot;w-20&amp;quot;,&amp;quot;x&amp;quot;:10,&amp;quot;h&amp;quot;:&amp;quot;h&amp;quot;,&amp;quot;y&amp;quot;:0},&amp;quot;text&amp;quot;:&amp;quot;文生图/图生图&amp;quot;}],&amp;quot;anchors&amp;quot;:[{&amp;quot;x&amp;quot;:&amp;quot;w/2&amp;quot;,&amp;quot;y&amp;quot;:&amp;quot;0&amp;quot;},{&amp;quot;x&amp;quot;:&amp;quot;w/2&amp;quot;,&amp;quot;y&amp;quot;:&amp;quot;h&amp;quot;},{&amp;quot;x&amp;quot;:&amp;quot;0&amp;quot;,&amp;quot;y&amp;quot;:&amp;quot;h/2&amp;quot;},{&amp;quot;x&amp;quot;:&amp;quot;w&amp;quot;,&amp;quot;y&amp;quot;:&amp;quot;h/2&amp;quot;}],&amp;quot;title&amp;quot;:&amp;quot;矩形&amp;quot;,&amp;quot;fontStyle&amp;quot;:{&amp;quot;size&amp;quot;:19},&amp;quot;dataAttributes&amp;quot;:[{&amp;quot;name&amp;quot;:&amp;quot;序号&amp;quot;,&amp;quot;id&amp;quot;:&amp;quot;IxBlqMSOtN511808&amp;quot;,&amp;quot;type&amp;quot;:&amp;quot;number&amp;quot;,&amp;quot;category&amp;quot;:&amp;quot;default&amp;quot;,&amp;quot;value&amp;quot;:&amp;quot;&amp;quot;},{&amp;quot;name&amp;quot;:&amp;quot;名称&amp;quot;,&amp;quot;id&amp;quot;:&amp;quot;UZWZYlgJSw993205&amp;quot;,&amp;quot;type&amp;quot;:&amp;quot;string&amp;quot;,&amp;quot;category&amp;quot;:&amp;quot;default&amp;quot;,&amp;quot;value&amp;quot;:&amp;quot;&amp;quot;},{&amp;quot;name&amp;quot;:&amp;quot;所有者&amp;quot;,&amp;quot;id&amp;quot;:&amp;quot;uDqHFwwend459883&amp;quot;,&amp;quot;type&amp;quot;:&amp;quot;string&amp;quot;,&amp;quot;category&amp;quot;:&amp;quot;default&amp;quot;,&amp;quot;value&amp;quot;:&amp;quot;&amp;quot;},{&amp;quot;name&amp;quot;:&amp;quot;连接&amp;quot;,&amp;quot;id&amp;quot;:&amp;quot;zQOMZqkfMa000009&amp;quot;,&amp;quot;type&amp;quot;:&amp;quot;link&amp;quot;,&amp;quot;category&amp;quot;:&amp;quot;default&amp;quot;,&amp;quot;value&amp;quot;:&amp;quot;&amp;quot;},{&amp;quot;name&amp;quot;:&amp;quot;便笺&amp;quot;,&amp;quot;id&amp;quot;:&amp;quot;hWhPzeKgeI841041&amp;quot;,&amp;quot;type&amp;quot;:&amp;quot;string&amp;quot;,&amp;quot;category&amp;quot;:&amp;quot;default&amp;quot;,&amp;quot;value&amp;quot;:&amp;quot;&amp;quot;}],&amp;quot;props&amp;quot;:{&amp;quot;zindex&amp;quot;:23,&amp;quot;w&amp;quot;:117.60417175292969,&amp;quot;x&amp;quot;:466.9583282470703,&amp;quot;h&amp;quot;:73.88890075683594,&amp;quot;y&amp;quot;:862,&amp;quot;angle&amp;quot;:0},&amp;quot;path&amp;quot;:[{&amp;quot;actions&amp;quot;:[{&amp;quot;x&amp;quot;:&amp;quot;0&amp;quot;,&amp;quot;action&amp;quot;:&amp;quot;move&amp;quot;,&amp;quot;y&amp;quot;:&amp;quot;0&amp;quot;},{&amp;quot;x&amp;quot;:&amp;quot;w&amp;quot;,&amp;quot;action&amp;quot;:&amp;quot;line&amp;quot;,&amp;quot;y&amp;quot;:&amp;quot;0&amp;quot;},{&amp;quot;x&amp;quot;:&amp;quot;w&amp;quot;,&amp;quot;action&amp;quot;:&amp;quot;line&amp;quot;,&amp;quot;y&amp;quot;:&amp;quot;h&amp;quot;},{&amp;quot;x&amp;quot;:&amp;quot;0&amp;quot;,&amp;quot;action&amp;quot;:&amp;quot;line&amp;quot;,&amp;quot;y&amp;quot;:&amp;quot;h&amp;quot;},{&amp;quot;action&amp;quot;:&amp;quot;close&amp;quot;}]}],&amp;quot;lineStyle&amp;quot;:{&amp;quot;lineWidth&amp;quot;:1.5},&amp;quot;children&amp;quot;:[],&amp;quot;resizeDir&amp;quot;:[&amp;quot;tl&amp;quot;,&amp;quot;tr&amp;quot;,&amp;quot;br&amp;quot;,&amp;quot;bl&amp;quot;,&amp;quot;l&amp;quot;,&amp;quot;t&amp;quot;,&amp;quot;r&amp;quot;,&amp;quot;b&amp;quot;],&amp;quot;name&amp;quot;:&amp;quot;rectangle&amp;quot;,&amp;quot;fillStyle&amp;quot;:{&amp;quot;color&amp;quot;:&amp;quot;210,214,249&amp;quot;,&amp;quot;type&amp;quot;:&amp;quot;solid&amp;quot;},&amp;quot;theme&amp;quot;:{},&amp;quot;id&amp;quot;:&amp;quot;ieYTUFMqIj524109&amp;quot;,&amp;quot;attribute&amp;quot;:{&amp;quot;container&amp;quot;:false,&amp;quot;rotatable&amp;quot;:true,&amp;quot;visible&amp;quot;:true,&amp;quot;fixedLink&amp;quot;:false,&amp;quot;collapsable&amp;quot;:false,&amp;quot;collapsed&amp;quot;:false,&amp;quot;linkable&amp;quot;:true,&amp;quot;markerOffset&amp;quot;:5},&amp;quot;category&amp;quot;:&amp;quot;basic&amp;quot;,&amp;quot;locked&amp;quot;:false,&amp;quot;group&amp;quot;:&amp;quot;&amp;quot;}]}&quot; data-t=&quot;flow&quot;&gt;&lt;/div&gt;&lt;/div&gt;" style="rounded=0;whiteSpace=wrap;html=1;fillColor=#f9f7ed;strokeColor=#36393d;" vertex="1" parent="1">
          <mxGeometry x="435" y="640" width="120" height="60" as="geometry" />
        </mxCell>
        <mxCell id="cLuOupA7dk0HDs1lH8jl-30" value="&lt;span style=&quot;color: rgb(50, 50, 50); font-family: &amp;quot;Microsoft YaHei&amp;quot;, 微软雅黑, Arial; font-size: 19px; background-color: rgba(255, 255, 255, 0.01);&quot;&gt;Agent&lt;/span&gt;&lt;div data-processon-v=&quot;{&amp;quot;list&amp;quot;:[{&amp;quot;parent&amp;quot;:&amp;quot;&amp;quot;,&amp;quot;link&amp;quot;:&amp;quot;&amp;quot;,&amp;quot;shapeStyle&amp;quot;:{&amp;quot;alpha&amp;quot;:1},&amp;quot;textBlock&amp;quot;:[{&amp;quot;position&amp;quot;:{&amp;quot;w&amp;quot;:&amp;quot;w-20&amp;quot;,&amp;quot;x&amp;quot;:10,&amp;quot;h&amp;quot;:&amp;quot;h&amp;quot;,&amp;quot;y&amp;quot;:0},&amp;quot;text&amp;quot;:&amp;quot;文生图/图生图&amp;quot;}],&amp;quot;anchors&amp;quot;:[{&amp;quot;x&amp;quot;:&amp;quot;w/2&amp;quot;,&amp;quot;y&amp;quot;:&amp;quot;0&amp;quot;},{&amp;quot;x&amp;quot;:&amp;quot;w/2&amp;quot;,&amp;quot;y&amp;quot;:&amp;quot;h&amp;quot;},{&amp;quot;x&amp;quot;:&amp;quot;0&amp;quot;,&amp;quot;y&amp;quot;:&amp;quot;h/2&amp;quot;},{&amp;quot;x&amp;quot;:&amp;quot;w&amp;quot;,&amp;quot;y&amp;quot;:&amp;quot;h/2&amp;quot;}],&amp;quot;title&amp;quot;:&amp;quot;矩形&amp;quot;,&amp;quot;fontStyle&amp;quot;:{&amp;quot;size&amp;quot;:19},&amp;quot;dataAttributes&amp;quot;:[{&amp;quot;name&amp;quot;:&amp;quot;序号&amp;quot;,&amp;quot;id&amp;quot;:&amp;quot;IxBlqMSOtN511808&amp;quot;,&amp;quot;type&amp;quot;:&amp;quot;number&amp;quot;,&amp;quot;category&amp;quot;:&amp;quot;default&amp;quot;,&amp;quot;value&amp;quot;:&amp;quot;&amp;quot;},{&amp;quot;name&amp;quot;:&amp;quot;名称&amp;quot;,&amp;quot;id&amp;quot;:&amp;quot;UZWZYlgJSw993205&amp;quot;,&amp;quot;type&amp;quot;:&amp;quot;string&amp;quot;,&amp;quot;category&amp;quot;:&amp;quot;default&amp;quot;,&amp;quot;value&amp;quot;:&amp;quot;&amp;quot;},{&amp;quot;name&amp;quot;:&amp;quot;所有者&amp;quot;,&amp;quot;id&amp;quot;:&amp;quot;uDqHFwwend459883&amp;quot;,&amp;quot;type&amp;quot;:&amp;quot;string&amp;quot;,&amp;quot;category&amp;quot;:&amp;quot;default&amp;quot;,&amp;quot;value&amp;quot;:&amp;quot;&amp;quot;},{&amp;quot;name&amp;quot;:&amp;quot;连接&amp;quot;,&amp;quot;id&amp;quot;:&amp;quot;zQOMZqkfMa000009&amp;quot;,&amp;quot;type&amp;quot;:&amp;quot;link&amp;quot;,&amp;quot;category&amp;quot;:&amp;quot;default&amp;quot;,&amp;quot;value&amp;quot;:&amp;quot;&amp;quot;},{&amp;quot;name&amp;quot;:&amp;quot;便笺&amp;quot;,&amp;quot;id&amp;quot;:&amp;quot;hWhPzeKgeI841041&amp;quot;,&amp;quot;type&amp;quot;:&amp;quot;string&amp;quot;,&amp;quot;category&amp;quot;:&amp;quot;default&amp;quot;,&amp;quot;value&amp;quot;:&amp;quot;&amp;quot;}],&amp;quot;props&amp;quot;:{&amp;quot;zindex&amp;quot;:23,&amp;quot;w&amp;quot;:117.60417175292969,&amp;quot;x&amp;quot;:466.9583282470703,&amp;quot;h&amp;quot;:73.88890075683594,&amp;quot;y&amp;quot;:862,&amp;quot;angle&amp;quot;:0},&amp;quot;path&amp;quot;:[{&amp;quot;actions&amp;quot;:[{&amp;quot;x&amp;quot;:&amp;quot;0&amp;quot;,&amp;quot;action&amp;quot;:&amp;quot;move&amp;quot;,&amp;quot;y&amp;quot;:&amp;quot;0&amp;quot;},{&amp;quot;x&amp;quot;:&amp;quot;w&amp;quot;,&amp;quot;action&amp;quot;:&amp;quot;line&amp;quot;,&amp;quot;y&amp;quot;:&amp;quot;0&amp;quot;},{&amp;quot;x&amp;quot;:&amp;quot;w&amp;quot;,&amp;quot;action&amp;quot;:&amp;quot;line&amp;quot;,&amp;quot;y&amp;quot;:&amp;quot;h&amp;quot;},{&amp;quot;x&amp;quot;:&amp;quot;0&amp;quot;,&amp;quot;action&amp;quot;:&amp;quot;line&amp;quot;,&amp;quot;y&amp;quot;:&amp;quot;h&amp;quot;},{&amp;quot;action&amp;quot;:&amp;quot;close&amp;quot;}]}],&amp;quot;lineStyle&amp;quot;:{&amp;quot;lineWidth&amp;quot;:1.5},&amp;quot;children&amp;quot;:[],&amp;quot;resizeDir&amp;quot;:[&amp;quot;tl&amp;quot;,&amp;quot;tr&amp;quot;,&amp;quot;br&amp;quot;,&amp;quot;bl&amp;quot;,&amp;quot;l&amp;quot;,&amp;quot;t&amp;quot;,&amp;quot;r&amp;quot;,&amp;quot;b&amp;quot;],&amp;quot;name&amp;quot;:&amp;quot;rectangle&amp;quot;,&amp;quot;fillStyle&amp;quot;:{&amp;quot;color&amp;quot;:&amp;quot;210,214,249&amp;quot;,&amp;quot;type&amp;quot;:&amp;quot;solid&amp;quot;},&amp;quot;theme&amp;quot;:{},&amp;quot;id&amp;quot;:&amp;quot;ieYTUFMqIj524109&amp;quot;,&amp;quot;attribute&amp;quot;:{&amp;quot;container&amp;quot;:false,&amp;quot;rotatable&amp;quot;:true,&amp;quot;visible&amp;quot;:true,&amp;quot;fixedLink&amp;quot;:false,&amp;quot;collapsable&amp;quot;:false,&amp;quot;collapsed&amp;quot;:false,&amp;quot;linkable&amp;quot;:true,&amp;quot;markerOffset&amp;quot;:5},&amp;quot;category&amp;quot;:&amp;quot;basic&amp;quot;,&amp;quot;locked&amp;quot;:false,&amp;quot;group&amp;quot;:&amp;quot;&amp;quot;}]}&quot; data-t=&quot;flow&quot;&gt;&lt;/div&gt;" style="rounded=0;whiteSpace=wrap;html=1;fillColor=#b0e3e6;strokeColor=#0e8088;" vertex="1" parent="1">
          <mxGeometry x="100" y="720" width="120" height="60" as="geometry" />
        </mxCell>
        <mxCell id="cLuOupA7dk0HDs1lH8jl-31" value="&lt;span style=&quot;color: rgb(50, 50, 50); font-family: &amp;quot;Microsoft YaHei&amp;quot;, 微软雅黑, Arial; font-size: 19px; background-color: rgba(255, 255, 255, 0.01);&quot;&gt;AI智能客服Agent&lt;/span&gt;&lt;div data-processon-v=&quot;{&amp;quot;list&amp;quot;:[{&amp;quot;parent&amp;quot;:&amp;quot;&amp;quot;,&amp;quot;link&amp;quot;:&amp;quot;&amp;quot;,&amp;quot;shapeStyle&amp;quot;:{&amp;quot;alpha&amp;quot;:1},&amp;quot;textBlock&amp;quot;:[{&amp;quot;position&amp;quot;:{&amp;quot;w&amp;quot;:&amp;quot;w-20&amp;quot;,&amp;quot;x&amp;quot;:10,&amp;quot;h&amp;quot;:&amp;quot;h&amp;quot;,&amp;quot;y&amp;quot;:0},&amp;quot;text&amp;quot;:&amp;quot;文生图/图生图&amp;quot;}],&amp;quot;anchors&amp;quot;:[{&amp;quot;x&amp;quot;:&amp;quot;w/2&amp;quot;,&amp;quot;y&amp;quot;:&amp;quot;0&amp;quot;},{&amp;quot;x&amp;quot;:&amp;quot;w/2&amp;quot;,&amp;quot;y&amp;quot;:&amp;quot;h&amp;quot;},{&amp;quot;x&amp;quot;:&amp;quot;0&amp;quot;,&amp;quot;y&amp;quot;:&amp;quot;h/2&amp;quot;},{&amp;quot;x&amp;quot;:&amp;quot;w&amp;quot;,&amp;quot;y&amp;quot;:&amp;quot;h/2&amp;quot;}],&amp;quot;title&amp;quot;:&amp;quot;矩形&amp;quot;,&amp;quot;fontStyle&amp;quot;:{&amp;quot;size&amp;quot;:19},&amp;quot;dataAttributes&amp;quot;:[{&amp;quot;name&amp;quot;:&amp;quot;序号&amp;quot;,&amp;quot;id&amp;quot;:&amp;quot;IxBlqMSOtN511808&amp;quot;,&amp;quot;type&amp;quot;:&amp;quot;number&amp;quot;,&amp;quot;category&amp;quot;:&amp;quot;default&amp;quot;,&amp;quot;value&amp;quot;:&amp;quot;&amp;quot;},{&amp;quot;name&amp;quot;:&amp;quot;名称&amp;quot;,&amp;quot;id&amp;quot;:&amp;quot;UZWZYlgJSw993205&amp;quot;,&amp;quot;type&amp;quot;:&amp;quot;string&amp;quot;,&amp;quot;category&amp;quot;:&amp;quot;default&amp;quot;,&amp;quot;value&amp;quot;:&amp;quot;&amp;quot;},{&amp;quot;name&amp;quot;:&amp;quot;所有者&amp;quot;,&amp;quot;id&amp;quot;:&amp;quot;uDqHFwwend459883&amp;quot;,&amp;quot;type&amp;quot;:&amp;quot;string&amp;quot;,&amp;quot;category&amp;quot;:&amp;quot;default&amp;quot;,&amp;quot;value&amp;quot;:&amp;quot;&amp;quot;},{&amp;quot;name&amp;quot;:&amp;quot;连接&amp;quot;,&amp;quot;id&amp;quot;:&amp;quot;zQOMZqkfMa000009&amp;quot;,&amp;quot;type&amp;quot;:&amp;quot;link&amp;quot;,&amp;quot;category&amp;quot;:&amp;quot;default&amp;quot;,&amp;quot;value&amp;quot;:&amp;quot;&amp;quot;},{&amp;quot;name&amp;quot;:&amp;quot;便笺&amp;quot;,&amp;quot;id&amp;quot;:&amp;quot;hWhPzeKgeI841041&amp;quot;,&amp;quot;type&amp;quot;:&amp;quot;string&amp;quot;,&amp;quot;category&amp;quot;:&amp;quot;default&amp;quot;,&amp;quot;value&amp;quot;:&amp;quot;&amp;quot;}],&amp;quot;props&amp;quot;:{&amp;quot;zindex&amp;quot;:23,&amp;quot;w&amp;quot;:117.60417175292969,&amp;quot;x&amp;quot;:466.9583282470703,&amp;quot;h&amp;quot;:73.88890075683594,&amp;quot;y&amp;quot;:862,&amp;quot;angle&amp;quot;:0},&amp;quot;path&amp;quot;:[{&amp;quot;actions&amp;quot;:[{&amp;quot;x&amp;quot;:&amp;quot;0&amp;quot;,&amp;quot;action&amp;quot;:&amp;quot;move&amp;quot;,&amp;quot;y&amp;quot;:&amp;quot;0&amp;quot;},{&amp;quot;x&amp;quot;:&amp;quot;w&amp;quot;,&amp;quot;action&amp;quot;:&amp;quot;line&amp;quot;,&amp;quot;y&amp;quot;:&amp;quot;0&amp;quot;},{&amp;quot;x&amp;quot;:&amp;quot;w&amp;quot;,&amp;quot;action&amp;quot;:&amp;quot;line&amp;quot;,&amp;quot;y&amp;quot;:&amp;quot;h&amp;quot;},{&amp;quot;x&amp;quot;:&amp;quot;0&amp;quot;,&amp;quot;action&amp;quot;:&amp;quot;line&amp;quot;,&amp;quot;y&amp;quot;:&amp;quot;h&amp;quot;},{&amp;quot;action&amp;quot;:&amp;quot;close&amp;quot;}]}],&amp;quot;lineStyle&amp;quot;:{&amp;quot;lineWidth&amp;quot;:1.5},&amp;quot;children&amp;quot;:[],&amp;quot;resizeDir&amp;quot;:[&amp;quot;tl&amp;quot;,&amp;quot;tr&amp;quot;,&amp;quot;br&amp;quot;,&amp;quot;bl&amp;quot;,&amp;quot;l&amp;quot;,&amp;quot;t&amp;quot;,&amp;quot;r&amp;quot;,&amp;quot;b&amp;quot;],&amp;quot;name&amp;quot;:&amp;quot;rectangle&amp;quot;,&amp;quot;fillStyle&amp;quot;:{&amp;quot;color&amp;quot;:&amp;quot;210,214,249&amp;quot;,&amp;quot;type&amp;quot;:&amp;quot;solid&amp;quot;},&amp;quot;theme&amp;quot;:{},&amp;quot;id&amp;quot;:&amp;quot;ieYTUFMqIj524109&amp;quot;,&amp;quot;attribute&amp;quot;:{&amp;quot;container&amp;quot;:false,&amp;quot;rotatable&amp;quot;:true,&amp;quot;visible&amp;quot;:true,&amp;quot;fixedLink&amp;quot;:false,&amp;quot;collapsable&amp;quot;:false,&amp;quot;collapsed&amp;quot;:false,&amp;quot;linkable&amp;quot;:true,&amp;quot;markerOffset&amp;quot;:5},&amp;quot;category&amp;quot;:&amp;quot;basic&amp;quot;,&amp;quot;locked&amp;quot;:false,&amp;quot;group&amp;quot;:&amp;quot;&amp;quot;}]}&quot; data-t=&quot;flow&quot;&gt;&lt;/div&gt;" style="rounded=0;whiteSpace=wrap;html=1;fillColor=#f9f7ed;strokeColor=#36393d;" vertex="1" parent="1">
          <mxGeometry x="435" y="720" width="120" height="60" as="geometry" />
        </mxCell>
        <mxCell id="cLuOupA7dk0HDs1lH8jl-32" value="&lt;font face=&quot;Microsoft YaHei, 微软雅黑, Arial&quot; color=&quot;#323232&quot;&gt;&lt;span style=&quot;font-size: 19px; background-color: rgba(255, 255, 255, 0.01);&quot;&gt;智能报表&lt;/span&gt;&lt;/font&gt;&lt;div data-processon-v=&quot;{&amp;quot;list&amp;quot;:[{&amp;quot;parent&amp;quot;:&amp;quot;&amp;quot;,&amp;quot;link&amp;quot;:&amp;quot;&amp;quot;,&amp;quot;shapeStyle&amp;quot;:{&amp;quot;alpha&amp;quot;:1},&amp;quot;textBlock&amp;quot;:[{&amp;quot;position&amp;quot;:{&amp;quot;w&amp;quot;:&amp;quot;w-20&amp;quot;,&amp;quot;x&amp;quot;:10,&amp;quot;h&amp;quot;:&amp;quot;h&amp;quot;,&amp;quot;y&amp;quot;:0},&amp;quot;text&amp;quot;:&amp;quot;文生图/图生图&amp;quot;}],&amp;quot;anchors&amp;quot;:[{&amp;quot;x&amp;quot;:&amp;quot;w/2&amp;quot;,&amp;quot;y&amp;quot;:&amp;quot;0&amp;quot;},{&amp;quot;x&amp;quot;:&amp;quot;w/2&amp;quot;,&amp;quot;y&amp;quot;:&amp;quot;h&amp;quot;},{&amp;quot;x&amp;quot;:&amp;quot;0&amp;quot;,&amp;quot;y&amp;quot;:&amp;quot;h/2&amp;quot;},{&amp;quot;x&amp;quot;:&amp;quot;w&amp;quot;,&amp;quot;y&amp;quot;:&amp;quot;h/2&amp;quot;}],&amp;quot;title&amp;quot;:&amp;quot;矩形&amp;quot;,&amp;quot;fontStyle&amp;quot;:{&amp;quot;size&amp;quot;:19},&amp;quot;dataAttributes&amp;quot;:[{&amp;quot;name&amp;quot;:&amp;quot;序号&amp;quot;,&amp;quot;id&amp;quot;:&amp;quot;IxBlqMSOtN511808&amp;quot;,&amp;quot;type&amp;quot;:&amp;quot;number&amp;quot;,&amp;quot;category&amp;quot;:&amp;quot;default&amp;quot;,&amp;quot;value&amp;quot;:&amp;quot;&amp;quot;},{&amp;quot;name&amp;quot;:&amp;quot;名称&amp;quot;,&amp;quot;id&amp;quot;:&amp;quot;UZWZYlgJSw993205&amp;quot;,&amp;quot;type&amp;quot;:&amp;quot;string&amp;quot;,&amp;quot;category&amp;quot;:&amp;quot;default&amp;quot;,&amp;quot;value&amp;quot;:&amp;quot;&amp;quot;},{&amp;quot;name&amp;quot;:&amp;quot;所有者&amp;quot;,&amp;quot;id&amp;quot;:&amp;quot;uDqHFwwend459883&amp;quot;,&amp;quot;type&amp;quot;:&amp;quot;string&amp;quot;,&amp;quot;category&amp;quot;:&amp;quot;default&amp;quot;,&amp;quot;value&amp;quot;:&amp;quot;&amp;quot;},{&amp;quot;name&amp;quot;:&amp;quot;连接&amp;quot;,&amp;quot;id&amp;quot;:&amp;quot;zQOMZqkfMa000009&amp;quot;,&amp;quot;type&amp;quot;:&amp;quot;link&amp;quot;,&amp;quot;category&amp;quot;:&amp;quot;default&amp;quot;,&amp;quot;value&amp;quot;:&amp;quot;&amp;quot;},{&amp;quot;name&amp;quot;:&amp;quot;便笺&amp;quot;,&amp;quot;id&amp;quot;:&amp;quot;hWhPzeKgeI841041&amp;quot;,&amp;quot;type&amp;quot;:&amp;quot;string&amp;quot;,&amp;quot;category&amp;quot;:&amp;quot;default&amp;quot;,&amp;quot;value&amp;quot;:&amp;quot;&amp;quot;}],&amp;quot;props&amp;quot;:{&amp;quot;zindex&amp;quot;:23,&amp;quot;w&amp;quot;:117.60417175292969,&amp;quot;x&amp;quot;:466.9583282470703,&amp;quot;h&amp;quot;:73.88890075683594,&amp;quot;y&amp;quot;:862,&amp;quot;angle&amp;quot;:0},&amp;quot;path&amp;quot;:[{&amp;quot;actions&amp;quot;:[{&amp;quot;x&amp;quot;:&amp;quot;0&amp;quot;,&amp;quot;action&amp;quot;:&amp;quot;move&amp;quot;,&amp;quot;y&amp;quot;:&amp;quot;0&amp;quot;},{&amp;quot;x&amp;quot;:&amp;quot;w&amp;quot;,&amp;quot;action&amp;quot;:&amp;quot;line&amp;quot;,&amp;quot;y&amp;quot;:&amp;quot;0&amp;quot;},{&amp;quot;x&amp;quot;:&amp;quot;w&amp;quot;,&amp;quot;action&amp;quot;:&amp;quot;line&amp;quot;,&amp;quot;y&amp;quot;:&amp;quot;h&amp;quot;},{&amp;quot;x&amp;quot;:&amp;quot;0&amp;quot;,&amp;quot;action&amp;quot;:&amp;quot;line&amp;quot;,&amp;quot;y&amp;quot;:&amp;quot;h&amp;quot;},{&amp;quot;action&amp;quot;:&amp;quot;close&amp;quot;}]}],&amp;quot;lineStyle&amp;quot;:{&amp;quot;lineWidth&amp;quot;:1.5},&amp;quot;children&amp;quot;:[],&amp;quot;resizeDir&amp;quot;:[&amp;quot;tl&amp;quot;,&amp;quot;tr&amp;quot;,&amp;quot;br&amp;quot;,&amp;quot;bl&amp;quot;,&amp;quot;l&amp;quot;,&amp;quot;t&amp;quot;,&amp;quot;r&amp;quot;,&amp;quot;b&amp;quot;],&amp;quot;name&amp;quot;:&amp;quot;rectangle&amp;quot;,&amp;quot;fillStyle&amp;quot;:{&amp;quot;color&amp;quot;:&amp;quot;210,214,249&amp;quot;,&amp;quot;type&amp;quot;:&amp;quot;solid&amp;quot;},&amp;quot;theme&amp;quot;:{},&amp;quot;id&amp;quot;:&amp;quot;ieYTUFMqIj524109&amp;quot;,&amp;quot;attribute&amp;quot;:{&amp;quot;container&amp;quot;:false,&amp;quot;rotatable&amp;quot;:true,&amp;quot;visible&amp;quot;:true,&amp;quot;fixedLink&amp;quot;:false,&amp;quot;collapsable&amp;quot;:false,&amp;quot;collapsed&amp;quot;:false,&amp;quot;linkable&amp;quot;:true,&amp;quot;markerOffset&amp;quot;:5},&amp;quot;category&amp;quot;:&amp;quot;basic&amp;quot;,&amp;quot;locked&amp;quot;:false,&amp;quot;group&amp;quot;:&amp;quot;&amp;quot;}]}&quot; data-t=&quot;flow&quot;&gt;&lt;/div&gt;" style="rounded=0;whiteSpace=wrap;html=1;fillColor=#ffcc99;strokeColor=#36393d;" vertex="1" parent="1">
          <mxGeometry x="593" y="720" width="120" height="60" as="geometry" />
        </mxCell>
        <mxCell id="cLuOupA7dk0HDs1lH8jl-33" value="&lt;span style=&quot;color: rgb(50, 50, 50); font-family: &amp;quot;Microsoft YaHei&amp;quot;, 微软雅黑, Arial; font-size: 19px; background-color: rgba(255, 255, 255, 0.01);&quot;&gt;加购成功推荐&lt;/span&gt;" style="rounded=0;whiteSpace=wrap;html=1;fillColor=#bac8d3;strokeColor=#23445d;" vertex="1" parent="1">
          <mxGeometry x="435" y="810" width="120" height="60" as="geometry" />
        </mxCell>
        <mxCell id="cLuOupA7dk0HDs1lH8jl-35" value="" style="line;strokeWidth=2;direction=south;html=1;" vertex="1" parent="1">
          <mxGeometry x="390" y="20" width="10" height="910" as="geometry" />
        </mxCell>
        <mxCell id="cLuOupA7dk0HDs1lH8jl-36" value="&lt;font face=&quot;Microsoft YaHei, 微软雅黑, Arial&quot; color=&quot;#323232&quot;&gt;&lt;span style=&quot;font-size: 19px; background-color: rgba(255, 255, 255, 0.01);&quot;&gt;模型部署&lt;/span&gt;&lt;/font&gt;" style="rounded=0;whiteSpace=wrap;html=1;" vertex="1" parent="1">
          <mxGeometry x="100" y="1030" width="120" height="60" as="geometry" />
        </mxCell>
        <mxCell id="cLuOupA7dk0HDs1lH8jl-37" value="&lt;font face=&quot;Microsoft YaHei, 微软雅黑, Arial&quot; color=&quot;#323232&quot;&gt;&lt;span style=&quot;font-size: 19px; background-color: rgba(255, 255, 255, 0.01);&quot;&gt;Ollama&lt;/span&gt;&lt;/font&gt;" style="rounded=0;whiteSpace=wrap;html=1;" vertex="1" parent="1">
          <mxGeometry x="260" y="1030" width="120" height="60" as="geometry" />
        </mxCell>
        <mxCell id="cLuOupA7dk0HDs1lH8jl-38" value="&lt;font face=&quot;Microsoft YaHei, 微软雅黑, Arial&quot; color=&quot;#323232&quot;&gt;&lt;span style=&quot;font-size: 19px; background-color: rgba(255, 255, 255, 0.01);&quot;&gt;LM Studio&lt;/span&gt;&lt;/font&gt;" style="rounded=0;whiteSpace=wrap;html=1;" vertex="1" parent="1">
          <mxGeometry x="420" y="1030" width="120" height="60" as="geometry" />
        </mxCell>
        <mxCell id="cLuOupA7dk0HDs1lH8jl-39" value="&lt;font face=&quot;Microsoft YaHei, 微软雅黑, Arial&quot; color=&quot;#323232&quot;&gt;&lt;span style=&quot;font-size: 19px; background-color: rgba(255, 255, 255, 0.01);&quot;&gt;Open WebUI&lt;/span&gt;&lt;/font&gt;" style="rounded=0;whiteSpace=wrap;html=1;" vertex="1" parent="1">
          <mxGeometry x="580" y="1030" width="120" height="60" as="geometry" />
        </mxCell>
        <mxCell id="cLuOupA7dk0HDs1lH8jl-40" value="&lt;font face=&quot;Microsoft YaHei, 微软雅黑, Arial&quot; color=&quot;#323232&quot;&gt;&lt;span style=&quot;font-size: 19px; background-color: rgba(255, 255, 255, 0.01);&quot;&gt;UI&lt;/span&gt;&lt;/font&gt;" style="rounded=0;whiteSpace=wrap;html=1;" vertex="1" parent="1">
          <mxGeometry x="100" y="1110" width="120" height="60" as="geometry" />
        </mxCell>
        <mxCell id="cLuOupA7dk0HDs1lH8jl-41" value="&lt;font face=&quot;Microsoft YaHei, 微软雅黑, Arial&quot; color=&quot;#323232&quot;&gt;&lt;span style=&quot;font-size: 19px; background-color: rgba(255, 255, 255, 0.01);&quot;&gt;ChatGPT&lt;/span&gt;&lt;/font&gt;&lt;div&gt;&lt;font face=&quot;Microsoft YaHei, 微软雅黑, Arial&quot; color=&quot;#323232&quot;&gt;&lt;span style=&quot;font-size: 19px; background-color: rgba(255, 255, 255, 0.01);&quot;&gt;NextWeb&lt;/span&gt;&lt;/font&gt;&lt;/div&gt;" style="rounded=0;whiteSpace=wrap;html=1;" vertex="1" parent="1">
          <mxGeometry x="260" y="1110" width="120" height="60" as="geometry" />
        </mxCell>
        <mxCell id="cLuOupA7dk0HDs1lH8jl-42" value="&lt;font face=&quot;Microsoft YaHei, 微软雅黑, Arial&quot; color=&quot;#323232&quot;&gt;&lt;span style=&quot;font-size: 19px; background-color: rgba(255, 255, 255, 0.01);&quot;&gt;ChatBox&lt;/span&gt;&lt;/font&gt;" style="rounded=0;whiteSpace=wrap;html=1;" vertex="1" parent="1">
          <mxGeometry x="420" y="1110" width="120" height="60" as="geometry" />
        </mxCell>
        <mxCell id="cLuOupA7dk0HDs1lH8jl-43" value="&lt;font face=&quot;Microsoft YaHei, 微软雅黑, Arial&quot; color=&quot;#323232&quot;&gt;&lt;span style=&quot;font-size: 19px; background-color: rgba(255, 255, 255, 0.01);&quot;&gt;向量库&lt;/span&gt;&lt;/font&gt;" style="rounded=0;whiteSpace=wrap;html=1;" vertex="1" parent="1">
          <mxGeometry x="100" y="1199" width="120" height="60" as="geometry" />
        </mxCell>
        <mxCell id="cLuOupA7dk0HDs1lH8jl-44" value="&lt;font face=&quot;Microsoft YaHei, 微软雅黑, Arial&quot; color=&quot;#323232&quot;&gt;&lt;span style=&quot;font-size: 19px; background-color: rgba(255, 255, 255, 0.01);&quot;&gt;Milvus&lt;/span&gt;&lt;/font&gt;" style="rounded=0;whiteSpace=wrap;html=1;" vertex="1" parent="1">
          <mxGeometry x="260" y="1199" width="120" height="60" as="geometry" />
        </mxCell>
        <mxCell id="cLuOupA7dk0HDs1lH8jl-45" value="&lt;font face=&quot;Microsoft YaHei, 微软雅黑, Arial&quot; color=&quot;#323232&quot;&gt;&lt;span style=&quot;font-size: 19px; background-color: rgba(255, 255, 255, 0.01);&quot;&gt;代码助手&lt;/span&gt;&lt;/font&gt;" style="rounded=0;whiteSpace=wrap;html=1;" vertex="1" parent="1">
          <mxGeometry x="100" y="1290" width="120" height="60" as="geometry" />
        </mxCell>
        <mxCell id="cLuOupA7dk0HDs1lH8jl-46" value="&lt;font face=&quot;Microsoft YaHei, 微软雅黑, Arial&quot; color=&quot;#323232&quot;&gt;&lt;span style=&quot;font-size: 19px; background-color: rgba(255, 255, 255, 0.01);&quot;&gt;CodeFuse&lt;/span&gt;&lt;/font&gt;" style="rounded=0;whiteSpace=wrap;html=1;" vertex="1" parent="1">
          <mxGeometry x="260" y="1290" width="120" height="60" as="geometry" />
        </mxCell>
        <mxCell id="cLuOupA7dk0HDs1lH8jl-47" value="&lt;font face=&quot;Microsoft YaHei, 微软雅黑, Arial&quot; color=&quot;#323232&quot;&gt;&lt;span style=&quot;font-size: 19px; background-color: rgba(255, 255, 255, 0.01);&quot;&gt;CodeGeeX&lt;/span&gt;&lt;/font&gt;" style="rounded=0;whiteSpace=wrap;html=1;" vertex="1" parent="1">
          <mxGeometry x="414" y="1290" width="120" height="60" as="geometry" />
        </mxCell>
        <mxCell id="cLuOupA7dk0HDs1lH8jl-48" value="&lt;font face=&quot;Microsoft YaHei, 微软雅黑, Arial&quot; color=&quot;#323232&quot;&gt;&lt;span style=&quot;font-size: 19px; background-color: rgba(255, 255, 255, 0.01);&quot;&gt;Code&lt;/span&gt;&lt;/font&gt;&lt;div&gt;&lt;font face=&quot;Microsoft YaHei, 微软雅黑, Arial&quot; color=&quot;#323232&quot;&gt;&lt;span style=&quot;font-size: 19px; background-color: rgba(255, 255, 255, 0.01);&quot;&gt;Whisperer&lt;/span&gt;&lt;/font&gt;&lt;/div&gt;" style="rounded=0;whiteSpace=wrap;html=1;" vertex="1" parent="1">
          <mxGeometry x="570" y="1290" width="120" height="60" as="geometry" />
        </mxCell>
        <mxCell id="cLuOupA7dk0HDs1lH8jl-49" value="&lt;font face=&quot;Microsoft YaHei, 微软雅黑, Arial&quot; color=&quot;#323232&quot;&gt;&lt;span style=&quot;font-size: 19px; background-color: rgba(255, 255, 255, 0.01);&quot;&gt;Copilot&lt;/span&gt;&lt;/font&gt;" style="rounded=0;whiteSpace=wrap;html=1;" vertex="1" parent="1">
          <mxGeometry x="730" y="1290" width="120" height="60" as="geometry" />
        </mxCell>
        <mxCell id="cLuOupA7dk0HDs1lH8jl-50" value="&lt;font face=&quot;Microsoft YaHei, 微软雅黑, Arial&quot; color=&quot;#323232&quot;&gt;&lt;span style=&quot;font-size: 19px; background-color: rgba(255, 255, 255, 0.01);&quot;&gt;图像&lt;/span&gt;&lt;/font&gt;" style="rounded=0;whiteSpace=wrap;html=1;" vertex="1" parent="1">
          <mxGeometry x="100" y="1380" width="120" height="60" as="geometry" />
        </mxCell>
        <mxCell id="cLuOupA7dk0HDs1lH8jl-51" value="&lt;font face=&quot;Microsoft YaHei, 微软雅黑, Arial&quot; color=&quot;#323232&quot;&gt;&lt;span style=&quot;font-size: 19px; background-color: rgba(255, 255, 255, 0.01);&quot;&gt;ComfyUI&lt;/span&gt;&lt;/font&gt;" style="rounded=0;whiteSpace=wrap;html=1;" vertex="1" parent="1">
          <mxGeometry x="260" y="1380" width="120" height="60" as="geometry" />
        </mxCell>
        <mxCell id="cLuOupA7dk0HDs1lH8jl-52" value="&lt;font face=&quot;Microsoft YaHei, 微软雅黑, Arial&quot; color=&quot;#323232&quot;&gt;&lt;span style=&quot;font-size: 19px; background-color: rgba(255, 255, 255, 0.01);&quot;&gt;Stable&lt;/span&gt;&lt;/font&gt;&lt;div&gt;&lt;font face=&quot;Microsoft YaHei, 微软雅黑, Arial&quot; color=&quot;#323232&quot;&gt;&lt;span style=&quot;font-size: 19px; background-color: rgba(255, 255, 255, 0.01);&quot;&gt;Diffusion&lt;/span&gt;&lt;/font&gt;&lt;/div&gt;" style="rounded=0;whiteSpace=wrap;html=1;" vertex="1" parent="1">
          <mxGeometry x="414" y="1380" width="120" height="60" as="geometry" />
        </mxCell>
        <mxCell id="cLuOupA7dk0HDs1lH8jl-53" value="&lt;font face=&quot;Microsoft YaHei, 微软雅黑, Arial&quot; color=&quot;#323232&quot;&gt;&lt;span style=&quot;font-size: 19px; background-color: rgba(255, 255, 255, 0.01);&quot;&gt;OpenAI&amp;nbsp;&lt;/span&gt;&lt;/font&gt;&lt;div&gt;&lt;font face=&quot;Microsoft YaHei, 微软雅黑, Arial&quot; color=&quot;#323232&quot;&gt;&lt;span style=&quot;font-size: 19px; background-color: rgba(255, 255, 255, 0.01);&quot;&gt;API Proxy&lt;/span&gt;&lt;/font&gt;&lt;/div&gt;" style="rounded=0;whiteSpace=wrap;html=1;" vertex="1" parent="1">
          <mxGeometry x="100" y="1470" width="120" height="60" as="geometry" />
        </mxCell>
        <mxCell id="cLuOupA7dk0HDs1lH8jl-54" value="&lt;font face=&quot;Microsoft YaHei, 微软雅黑, Arial&quot; color=&quot;#323232&quot;&gt;&lt;span style=&quot;font-size: 19px; background-color: rgba(255, 255, 255, 0.01);&quot;&gt;OneApi&lt;/span&gt;&lt;/font&gt;" style="rounded=0;whiteSpace=wrap;html=1;" vertex="1" parent="1">
          <mxGeometry x="260" y="1470" width="120" height="60" as="geometry" />
        </mxCell>
        <mxCell id="cLuOupA7dk0HDs1lH8jl-55" value="&lt;font face=&quot;Microsoft YaHei, 微软雅黑, Arial&quot; color=&quot;#323232&quot;&gt;&lt;span style=&quot;font-size: 19px; background-color: rgba(255, 255, 255, 0.01);&quot;&gt;模型下载&lt;/span&gt;&lt;/font&gt;" style="rounded=0;whiteSpace=wrap;html=1;" vertex="1" parent="1">
          <mxGeometry x="100" y="1560" width="120" height="60" as="geometry" />
        </mxCell>
        <mxCell id="cLuOupA7dk0HDs1lH8jl-56" value="&lt;font face=&quot;Microsoft YaHei, 微软雅黑, Arial&quot; color=&quot;#323232&quot;&gt;&lt;span style=&quot;font-size: 19px; background-color: rgba(255, 255, 255, 0.01);&quot;&gt;Huggingface&lt;/span&gt;&lt;/font&gt;" style="rounded=0;whiteSpace=wrap;html=1;" vertex="1" parent="1">
          <mxGeometry x="260" y="1560" width="120" height="60" as="geometry" />
        </mxCell>
        <mxCell id="cLuOupA7dk0HDs1lH8jl-57" value="&lt;font face=&quot;Microsoft YaHei, 微软雅黑, Arial&quot; color=&quot;#323232&quot;&gt;&lt;span style=&quot;font-size: 19px; background-color: rgba(255, 255, 255, 0.01);&quot;&gt;ModelScope&lt;/span&gt;&lt;/font&gt;" style="rounded=0;whiteSpace=wrap;html=1;" vertex="1" parent="1">
          <mxGeometry x="414" y="1560" width="120" height="60" as="geometry" />
        </mxCell>
        <mxCell id="cLuOupA7dk0HDs1lH8jl-58" value="&lt;font face=&quot;Microsoft YaHei, 微软雅黑, Arial&quot; color=&quot;#323232&quot;&gt;&lt;span style=&quot;font-size: 19px; background-color: rgba(255, 255, 255, 0.01);&quot;&gt;Civitai&lt;/span&gt;&lt;/font&gt;" style="rounded=0;whiteSpace=wrap;html=1;" vertex="1" parent="1">
          <mxGeometry x="570" y="1560" width="120" height="60" as="geometry" />
        </mxCell>
        <mxCell id="cLuOupA7dk0HDs1lH8jl-60" value="LLM能力" style="text;strokeColor=none;align=center;fillColor=none;html=1;verticalAlign=middle;whiteSpace=wrap;rounded=0;" vertex="1" parent="1">
          <mxGeometry x="60" y="20" width="60" height="30" as="geometry" />
        </mxCell>
        <mxCell id="cLuOupA7dk0HDs1lH8jl-61" value="相关项目" style="text;strokeColor=none;align=center;fillColor=none;html=1;verticalAlign=middle;whiteSpace=wrap;rounded=0;" vertex="1" parent="1">
          <mxGeometry x="430" y="20" width="60" height="30" as="geometry" />
        </mxCell>
        <mxCell id="cLuOupA7dk0HDs1lH8jl-62" value="" style="rounded=0;whiteSpace=wrap;html=1;fillColor=#fad9d5;strokeColor=#ae4132;" vertex="1" parent="1">
          <mxGeometry x="850" y="295" width="120" height="20" as="geometry" />
        </mxCell>
        <mxCell id="cLuOupA7dk0HDs1lH8jl-63" value="MKPL &amp;amp; Finance" style="text;html=1;align=center;verticalAlign=middle;whiteSpace=wrap;rounded=0;" vertex="1" parent="1">
          <mxGeometry x="1020" y="290" width="100" height="30" as="geometry" />
        </mxCell>
        <mxCell id="cLuOupA7dk0HDs1lH8jl-65" value="" style="rounded=0;whiteSpace=wrap;html=1;fillColor=#d0cee2;strokeColor=#56517e;" vertex="1" parent="1">
          <mxGeometry x="850" y="325" width="120" height="20" as="geometry" />
        </mxCell>
        <mxCell id="cLuOupA7dk0HDs1lH8jl-66" value="Pre-purchase" style="text;html=1;align=center;verticalAlign=middle;whiteSpace=wrap;rounded=0;" vertex="1" parent="1">
          <mxGeometry x="1020" y="320" width="100" height="30" as="geometry" />
        </mxCell>
        <mxCell id="cLuOupA7dk0HDs1lH8jl-67" value="" style="rounded=0;whiteSpace=wrap;html=1;fillColor=#ffe6cc;strokeColor=#d79b00;" vertex="1" parent="1">
          <mxGeometry x="850" y="355" width="120" height="20" as="geometry" />
        </mxCell>
        <mxCell id="cLuOupA7dk0HDs1lH8jl-68" value="Retail" style="text;html=1;align=center;verticalAlign=middle;whiteSpace=wrap;rounded=0;" vertex="1" parent="1">
          <mxGeometry x="1020" y="350" width="100" height="30" as="geometry" />
        </mxCell>
        <mxCell id="cLuOupA7dk0HDs1lH8jl-69" value="" style="rounded=0;whiteSpace=wrap;html=1;fillColor=#bac8d3;strokeColor=#23445d;" vertex="1" parent="1">
          <mxGeometry x="850" y="385" width="120" height="20" as="geometry" />
        </mxCell>
        <mxCell id="cLuOupA7dk0HDs1lH8jl-70" value="Bigdata" style="text;html=1;align=center;verticalAlign=middle;whiteSpace=wrap;rounded=0;" vertex="1" parent="1">
          <mxGeometry x="1020" y="380" width="100" height="30" as="geometry" />
        </mxCell>
        <mxCell id="cLuOupA7dk0HDs1lH8jl-71" value="" style="rounded=0;whiteSpace=wrap;html=1;fillColor=#f9f7ed;strokeColor=#36393d;" vertex="1" parent="1">
          <mxGeometry x="850" y="415" width="120" height="20" as="geometry" />
        </mxCell>
        <mxCell id="cLuOupA7dk0HDs1lH8jl-72" value="Purchase" style="text;html=1;align=center;verticalAlign=middle;whiteSpace=wrap;rounded=0;" vertex="1" parent="1">
          <mxGeometry x="1020" y="410" width="100" height="30" as="geometry" />
        </mxCell>
        <mxCell id="cLuOupA7dk0HDs1lH8jl-73" value="" style="rounded=0;whiteSpace=wrap;html=1;fillColor=#ffcc99;strokeColor=#36393d;" vertex="1" parent="1">
          <mxGeometry x="850" y="445" width="120" height="20" as="geometry" />
        </mxCell>
        <mxCell id="cLuOupA7dk0HDs1lH8jl-74" value="Platform Service" style="text;html=1;align=center;verticalAlign=middle;whiteSpace=wrap;rounded=0;" vertex="1" parent="1">
          <mxGeometry x="1020" y="440" width="100" height="30" as="geometry" />
        </mxCell>
      </root>
    </mxGraphModel>
  </diagram>
</mxfile>
